<svg width="2291" height="601" viewBox="0 0 2291 601" fill="none" xmlns="http://www.w3.org/2000/svg">
<g clip-path="url(#clip0_9_87)">
<g clip-path="url(#clip1_9_87)">
<g clip-path="url(#clip2_9_87)">
<path d="M609.117 63.3561C609.117 50.7538 603.71 40.5376 597.04 40.5376C590.37 40.5376 584.962 50.7538 584.962 63.3561V538.34C584.962 550.942 590.37 561.159 597.04 561.159C603.71 561.159 609.117 550.942 609.117 538.34V63.3561Z" fill="white"/>
<g clip-path="url(#clip3_9_87)">
<g clip-path="url(#clip4_9_87)">
<g clip-path="url(#clip5_9_87)">
<g clip-path="url(#clip6_9_87)">
<path d="M844.946 86.8222H879.741V348.871H844.946V233.975H707.579V348.871H672.422V86.8222H707.579V200.63H844.946V86.8222ZM938.82 218.028C938.82 199.905 942.251 182.798 949.113 166.705C956.024 150.661 965.641 136.405 977.964 123.937C990.287 111.517 1004.47 101.731 1020.52 94.5785C1036.61 87.4746 1053.96 83.9226 1072.56 83.9226C1090.93 83.9226 1108.13 87.4746 1124.17 94.5785C1140.27 101.731 1154.52 111.517 1166.94 123.937C1179.41 136.405 1189.15 150.661 1196.16 166.705C1203.16 182.798 1206.67 199.905 1206.67 218.028C1206.67 236.633 1203.16 254.031 1196.16 270.22C1189.15 286.409 1179.41 300.593 1166.94 312.771C1154.52 324.998 1140.27 334.542 1124.17 341.404C1108.13 348.315 1090.93 351.77 1072.56 351.77C1053.96 351.77 1036.61 348.388 1020.52 341.622C1004.47 334.856 990.287 325.433 977.964 313.351C965.641 301.27 956.024 287.134 949.113 270.945C942.251 254.756 938.82 237.117 938.82 218.028ZM975.065 218.39C975.065 232.163 977.602 245.018 982.676 256.954C987.75 268.939 994.757 279.523 1003.7 288.705C1012.64 297.887 1023.03 305.063 1034.87 310.234C1046.71 315.453 1059.51 318.063 1073.29 318.063C1086.82 318.063 1099.5 315.453 1111.34 310.234C1123.18 305.063 1133.45 297.887 1142.15 288.705C1150.85 279.523 1157.74 268.939 1162.81 256.954C1167.89 245.018 1170.42 232.042 1170.42 218.028C1170.42 204.255 1167.89 191.255 1162.81 179.029C1157.74 166.85 1150.73 156.17 1141.79 146.988C1132.85 137.806 1122.46 130.606 1110.62 125.386C1098.78 120.216 1086.09 117.63 1072.56 117.63C1058.79 117.63 1045.98 120.288 1034.14 125.604C1022.3 130.92 1011.91 138.169 1002.97 147.351C994.033 156.533 987.146 167.213 982.313 179.391C977.481 191.617 975.065 204.617 975.065 218.39ZM1414.64 106.757L1401.3 133.578C1392.31 128.987 1382.5 125 1371.87 121.617C1361.29 118.234 1350.9 116.543 1340.7 116.543C1326.73 116.543 1315.57 119.805 1307.21 126.329C1298.9 132.853 1294.74 141.552 1294.74 152.425C1294.74 160.64 1297.38 167.575 1302.64 173.229C1308.01 178.932 1315.04 183.837 1323.74 187.945C1332.39 192.052 1341.45 195.919 1350.92 199.543C1359.14 202.684 1367.21 206.188 1375.13 210.054C1383.15 213.92 1390.36 218.753 1396.73 224.552C1403.11 230.351 1408.19 237.479 1411.96 245.936C1415.73 254.393 1417.61 264.904 1417.61 277.469C1417.61 291.242 1414.16 303.807 1407.25 315.163C1400.33 326.52 1390.5 335.46 1377.74 341.984C1364.89 348.508 1349.64 351.77 1332 351.77C1320.45 351.77 1309.41 350.441 1298.87 347.784C1288.34 345.126 1278.6 341.67 1269.66 337.418C1260.77 333.213 1252.82 328.815 1245.81 324.225L1261.32 296.679C1267.12 300.786 1273.77 304.701 1281.26 308.422C1288.8 312.191 1296.65 315.212 1304.82 317.483C1313.03 319.803 1321.03 320.963 1328.81 320.963C1336.98 320.963 1345.12 319.44 1353.24 316.396C1361.36 313.399 1368.05 308.76 1373.32 302.478C1378.68 296.195 1381.37 287.859 1381.37 277.469C1381.37 268.529 1379 261.086 1374.26 255.142C1369.58 249.246 1363.34 244.172 1355.56 239.92C1347.83 235.715 1339.64 231.922 1330.99 228.539C1322.72 225.397 1314.36 221.942 1305.91 218.173C1297.45 214.452 1289.6 209.861 1282.35 204.4C1275.1 198.987 1269.3 192.294 1264.95 184.32C1260.65 176.346 1258.5 166.681 1258.5 155.325C1258.5 141.552 1261.81 129.518 1268.43 119.225C1275.1 108.98 1284.21 100.909 1295.76 95.0135C1307.36 89.0693 1320.65 85.8557 1335.63 85.3724C1352.54 85.3724 1367.47 87.4262 1380.42 91.534C1393.38 95.6417 1404.78 100.716 1414.64 106.757ZM1649.14 86.8222H1683.94V348.871H1649.14V233.975H1511.78V348.871H1476.62V86.8222H1511.78V200.63H1649.14V86.8222ZM1759.33 348.871V86.8222H1794.48V348.871H1759.33ZM1869.87 348.871V86.8222H2025.36V120.53H1905.03V204.255H2010.5V237.6H1905.03V348.871H1869.87ZM2152.94 348.871V261.521L2055.73 86.8222H2098.87L2176.79 231.438L2165.92 232.163L2243.12 86.8222H2285.89L2188.03 261.521V348.871H2152.94Z" fill="white"/>
</g>
</g>
<g clip-path="url(#clip7_9_87)">
<g clip-path="url(#clip8_9_87)">
<path d="M734.666 495.577H726.897L719.129 474.379H687.72L680.729 495.577H672.405L699.263 419.886H707.031L734.666 495.577ZM703.036 430.763L690.273 467.498H716.576L703.036 430.763ZM765.076 495.577H742.102V488.252H749.427V427.211H742.102V419.886H765.076V427.211H757.751V488.252H765.076V495.577ZM813.22 495.577H805.673V450.518H796.795V443.637H805.673V426.434H813.22V443.637H825.206V450.518H813.22V495.577ZM856.059 497.352C851.102 497.352 846.663 496.169 842.742 493.801C838.82 491.433 835.75 488.119 833.53 483.857C831.31 479.61 830.2 474.823 830.2 469.496C830.2 464.168 831.295 459.411 833.486 455.223C835.661 451.05 838.694 447.78 842.586 445.412C846.463 443.045 850.88 441.861 855.838 441.861C860.795 441.861 865.234 443.045 869.155 445.412C873.077 447.78 876.147 451.072 878.367 455.29C880.587 459.507 881.697 464.279 881.697 469.607C881.697 474.934 880.609 479.706 878.434 483.923C876.244 488.141 873.21 491.433 869.333 493.801C865.441 496.169 861.017 497.352 856.059 497.352ZM855.838 490.471C859.389 490.471 862.556 489.584 865.338 487.808C868.105 486.032 870.265 483.553 871.819 480.372C873.373 477.19 874.15 473.602 874.15 469.607C874.15 465.611 873.373 462.023 871.819 458.841C870.265 455.66 868.105 453.181 865.338 451.405C862.556 449.63 859.389 448.742 855.838 448.742C852.36 448.742 849.253 449.63 846.515 451.405C843.777 453.181 841.632 455.645 840.078 458.797C838.524 461.934 837.747 465.5 837.747 469.496C837.747 473.565 838.524 477.19 840.078 480.372C841.632 483.553 843.777 486.032 846.515 487.808C849.253 489.584 852.36 490.471 855.838 490.471ZM914.991 497.352C910.034 497.352 905.595 496.169 901.674 493.801C897.752 491.433 894.682 488.119 892.462 483.857C890.242 479.61 889.132 474.823 889.132 469.496C889.132 464.168 890.22 459.411 892.395 455.223C894.585 451.05 897.619 447.78 901.496 445.412C905.388 443.045 909.812 441.861 914.77 441.861C919.727 441.861 924.166 443.045 928.087 445.412C932.009 447.78 935.079 451.072 937.299 455.29C939.519 459.507 940.629 464.279 940.629 469.607C940.629 474.934 939.534 479.706 937.343 483.923C935.168 488.141 932.135 491.433 928.243 493.801C924.366 496.169 919.949 497.352 914.991 497.352ZM914.77 490.471C918.321 490.471 921.48 489.584 924.247 487.808C927.029 486.032 929.197 483.553 930.751 480.372C932.305 477.19 933.082 473.602 933.082 469.607C933.082 465.611 932.305 462.023 930.751 458.841C929.197 455.66 927.029 453.181 924.247 451.405C921.48 449.63 918.321 448.742 914.77 448.742C911.292 448.742 908.185 449.63 905.447 451.405C902.709 453.181 900.564 455.645 899.01 458.797C897.456 461.934 896.679 465.5 896.679 469.496C896.679 473.565 897.456 477.19 899.01 480.372C900.564 483.553 902.709 486.032 905.447 487.808C908.185 489.584 911.292 490.471 914.77 490.471ZM959.385 495.577H951.838V415.003H959.385V495.577ZM992.102 497.352C987.071 497.352 982.654 496.28 978.851 494.134C975.033 491.988 972.126 488.955 970.128 485.033L976.898 481.704C979.635 487.549 985 490.471 992.99 490.471C996.838 490.471 1000.02 489.769 1002.53 488.363C1005.05 486.957 1006.31 484.774 1006.31 481.815C1006.31 478.781 1005.29 476.525 1003.27 475.045C1001.23 473.565 997.652 472.603 992.546 472.159C985.443 471.567 980.36 469.977 977.297 467.387C974.219 464.797 972.68 461.357 972.68 457.065C972.68 452.256 974.419 448.52 977.897 445.856C981.374 443.193 986.146 441.861 992.213 441.861C1002.5 441.861 1009.49 445.93 1013.19 454.069L1006.42 457.398C1005.16 454.439 1003.33 452.256 1000.94 450.85C998.525 449.445 995.432 448.742 991.659 448.742C987.811 448.742 984.874 449.445 982.847 450.85C980.804 452.256 979.783 454.254 979.783 456.844C979.783 459.285 980.878 461.261 983.068 462.77C985.244 464.294 988.995 465.278 994.322 465.722C1000.91 466.314 1005.81 467.92 1009.04 470.539C1012.25 473.173 1013.86 476.636 1013.86 480.927C1013.86 484.404 1012.86 487.379 1010.86 489.85C1008.86 492.336 1006.2 494.208 1002.87 495.466C999.538 496.723 995.95 497.352 992.102 497.352ZM1105.31 441.861C1110.11 441.861 1114.11 443.54 1117.29 446.899C1120.47 450.273 1122.06 454.92 1122.06 460.839V495.577H1114.52V464.168C1114.52 458.693 1113.48 454.75 1111.41 452.338C1109.34 449.94 1106.64 448.742 1103.31 448.742C1099.24 448.742 1096.07 450.31 1093.81 453.447C1091.56 456.599 1090.25 460.876 1089.88 466.277V495.577H1082.33V464.168C1082.33 458.693 1081.3 454.75 1079.22 452.338C1077.15 449.94 1074.45 448.742 1071.12 448.742C1066.61 448.742 1063.22 450.628 1060.96 454.402C1058.71 458.175 1057.58 463.244 1057.58 469.607V495.577H1050.04V443.637H1057.58V451.738C1059.28 448.557 1061.44 446.115 1064.06 444.413C1066.7 442.712 1069.72 441.861 1073.12 441.861C1076.89 441.861 1080.19 442.874 1083 444.902C1085.81 446.944 1087.77 449.852 1088.88 453.625C1090.51 449.926 1092.73 447.04 1095.54 444.968C1098.35 442.897 1101.61 441.861 1105.31 441.861ZM1176.22 443.637H1183.77V495.577H1176.22V487.919C1174.08 490.878 1171.45 493.187 1168.34 494.844C1165.24 496.516 1161.83 497.352 1158.13 497.352C1153.18 497.352 1148.74 496.169 1144.82 493.801C1140.89 491.433 1137.82 488.141 1135.6 483.923C1133.38 479.706 1132.27 474.897 1132.27 469.496C1132.27 464.168 1133.36 459.411 1135.54 455.223C1137.73 451.05 1140.76 447.78 1144.64 445.412C1148.53 443.045 1152.95 441.861 1157.91 441.861C1161.68 441.861 1165.14 442.689 1168.28 444.347C1171.43 446.019 1174.08 448.372 1176.22 451.405V443.637ZM1157.91 490.471C1161.46 490.471 1164.62 489.584 1167.39 487.808C1170.17 486.032 1172.34 483.553 1173.89 480.372C1175.45 477.19 1176.22 473.602 1176.22 469.607C1176.22 465.611 1175.45 462.023 1173.89 458.841C1172.34 455.66 1170.17 453.181 1167.39 451.405C1164.62 449.63 1161.46 448.742 1157.91 448.742C1154.43 448.742 1151.33 449.63 1148.59 451.405C1145.85 453.181 1143.71 455.645 1142.15 458.797C1140.6 461.934 1139.82 465.5 1139.82 469.496C1139.82 473.565 1140.6 477.19 1142.15 480.372C1143.71 483.553 1145.85 486.032 1148.59 487.808C1151.33 489.584 1154.43 490.471 1157.91 490.471ZM1223.26 441.861C1225.03 441.861 1226.74 442.12 1228.36 442.638V449.519C1226.81 448.779 1225.11 448.409 1223.26 448.409C1220.08 448.409 1217.12 449.297 1214.38 451.072C1211.64 452.848 1209.44 455.423 1207.79 458.797C1206.11 462.156 1205.28 466.129 1205.28 470.716V495.577H1197.73V443.637H1205.28V454.069C1207.28 450.222 1209.81 447.225 1212.89 445.079C1215.96 442.934 1219.41 441.861 1223.26 441.861ZM1275.86 495.577H1267.43L1249.23 468.83L1242.9 474.934V495.577H1235.36V415.003H1242.9V465.389L1265.65 443.637H1275.42L1254.44 463.835L1275.86 495.577ZM1306.16 441.861C1310.82 441.861 1315.04 443.008 1318.81 445.301C1322.59 447.595 1325.55 450.717 1327.69 454.668C1329.84 458.634 1330.91 463.059 1330.91 467.942C1330.91 469.348 1330.87 470.42 1330.8 471.16H1288.07C1288.37 476.488 1290.11 481.038 1293.29 484.811C1296.47 488.585 1300.8 490.471 1306.27 490.471C1310.71 490.471 1314.39 489.635 1317.3 487.963C1320.23 486.306 1322.59 483.997 1324.36 481.038L1330.36 485.033C1327.91 488.881 1324.7 491.892 1320.7 494.067C1316.71 496.257 1311.97 497.352 1306.5 497.352C1301.46 497.352 1296.99 496.169 1293.07 493.801C1289.14 491.433 1286.07 488.141 1283.85 483.923C1281.64 479.706 1280.53 474.934 1280.53 469.607C1280.53 464.279 1281.61 459.507 1283.79 455.29C1285.98 451.072 1289.01 447.78 1292.89 445.412C1296.78 443.045 1301.2 441.861 1306.16 441.861ZM1288.52 464.945H1323.36C1322.62 459.544 1320.81 455.49 1317.93 452.782C1315.04 450.088 1311.12 448.742 1306.16 448.742C1301.35 448.742 1297.41 450.273 1294.33 453.336C1291.27 456.414 1289.33 460.284 1288.52 464.945ZM1352.33 495.577H1344.76V450.518H1335.88V443.637H1344.76V426.434H1352.33V443.637H1364.3V450.518H1352.33V495.577ZM1398.26 441.861C1403.21 441.861 1407.65 443.045 1411.57 445.412C1415.5 447.78 1418.57 451.072 1420.79 455.29C1423.01 459.507 1424.12 464.316 1424.12 469.718C1424.12 475.045 1423.03 479.795 1420.85 483.968C1418.66 488.156 1415.63 491.433 1411.75 493.801C1407.86 496.169 1403.44 497.352 1398.48 497.352C1394.7 497.352 1391.25 496.516 1388.11 494.844C1384.96 493.187 1382.31 490.841 1380.17 487.808V517.773H1372.62V443.637H1380.17V451.294C1382.31 448.335 1384.94 446.019 1388.05 444.347C1391.15 442.689 1394.56 441.861 1398.26 441.861ZM1398.48 490.471C1401.96 490.471 1405.06 489.584 1407.8 487.808C1410.54 486.032 1412.68 483.568 1414.24 480.416C1415.79 477.279 1416.57 473.713 1416.57 469.718C1416.57 465.648 1415.79 462.023 1414.24 458.841C1412.68 455.66 1410.54 453.181 1407.8 451.405C1405.06 449.63 1401.96 448.742 1398.48 448.742C1394.93 448.742 1391.77 449.63 1389 451.405C1386.22 453.181 1384.05 455.66 1382.5 458.841C1380.94 462.023 1380.17 465.611 1380.17 469.607C1380.17 473.602 1380.94 477.19 1382.5 480.372C1384.05 483.553 1386.22 486.032 1389 487.808C1391.77 489.584 1394.93 490.471 1398.48 490.471ZM1442.87 495.577H1435.32V415.003H1442.87V495.577ZM1498.03 443.637H1505.58V495.577H1498.03V487.919C1495.88 490.878 1493.26 493.187 1490.15 494.844C1487.04 496.516 1483.64 497.352 1479.94 497.352C1474.98 497.352 1470.54 496.169 1466.62 493.801C1462.7 491.433 1459.63 488.141 1457.41 483.923C1455.19 479.706 1454.08 474.897 1454.08 469.496C1454.08 464.168 1455.17 459.411 1457.34 455.223C1459.53 451.05 1462.57 447.78 1466.44 445.412C1470.34 443.045 1474.76 441.861 1479.72 441.861C1483.49 441.861 1486.95 442.689 1490.08 444.347C1493.24 446.019 1495.88 448.372 1498.03 451.405V443.637ZM1479.72 490.471C1483.27 490.471 1486.43 489.584 1489.2 487.808C1491.98 486.032 1494.15 483.553 1495.7 480.372C1497.25 477.19 1498.03 473.602 1498.03 469.607C1498.03 465.611 1497.25 462.023 1495.7 458.841C1494.15 455.66 1491.98 453.181 1489.2 451.405C1486.43 449.63 1483.27 448.742 1479.72 448.742C1476.24 448.742 1473.13 449.63 1470.39 451.405C1467.66 453.181 1465.51 455.645 1463.96 458.797C1462.4 461.934 1461.63 465.5 1461.63 469.496C1461.63 473.565 1462.4 477.19 1463.96 480.372C1465.51 483.553 1467.66 486.032 1470.39 487.808C1473.13 489.584 1476.24 490.471 1479.72 490.471ZM1542.09 497.352C1537.04 497.352 1532.57 496.169 1528.66 493.801C1524.74 491.433 1521.67 488.141 1519.45 483.923C1517.23 479.706 1516.12 474.934 1516.12 469.607C1516.12 464.279 1517.21 459.507 1519.38 455.29C1521.57 451.072 1524.63 447.78 1528.55 445.412C1532.47 443.045 1536.91 441.861 1541.87 441.861C1546.09 441.861 1549.76 442.763 1552.9 444.569C1556.05 446.389 1558.92 448.964 1561.51 452.293L1555.96 456.622C1552.34 451.368 1547.64 448.742 1541.87 448.742C1538.39 448.742 1535.26 449.63 1532.48 451.405C1529.71 453.181 1527.55 455.66 1526 458.841C1524.44 462.023 1523.67 465.611 1523.67 469.607C1523.67 473.602 1524.44 477.19 1526 480.372C1527.55 483.553 1529.71 486.032 1532.48 487.808C1535.26 489.584 1538.39 490.471 1541.87 490.471C1545.42 490.471 1548.33 489.857 1550.61 488.629C1552.92 487.416 1555 485.625 1556.85 483.257L1562.73 487.364C1560.29 490.397 1557.27 492.817 1553.68 494.622C1550.1 496.442 1546.23 497.352 1542.09 497.352ZM1594.9 441.861C1599.56 441.861 1603.77 443.008 1607.55 445.301C1611.32 447.595 1614.28 450.717 1616.43 454.668C1618.57 458.634 1619.64 463.059 1619.64 467.942C1619.64 469.348 1619.61 470.42 1619.53 471.16H1576.81C1577.1 476.488 1578.84 481.038 1582.02 484.811C1585.2 488.585 1589.53 490.471 1595.01 490.471C1599.45 490.471 1603.13 489.635 1606.06 487.963C1608.98 486.306 1611.32 483.997 1613.1 481.038L1619.09 485.033C1616.65 488.881 1613.43 491.892 1609.43 494.067C1605.44 496.257 1600.7 497.352 1595.23 497.352C1590.2 497.352 1585.72 496.169 1581.8 493.801C1577.88 491.433 1574.81 488.141 1572.59 483.923C1570.37 479.706 1569.26 474.934 1569.26 469.607C1569.26 464.279 1570.35 459.507 1572.54 455.29C1574.72 451.072 1577.75 447.78 1581.64 445.412C1585.52 443.045 1589.94 441.861 1594.9 441.861ZM1577.25 464.945H1612.1C1611.36 459.544 1609.55 455.49 1606.66 452.782C1603.77 450.088 1599.85 448.742 1594.9 448.742C1590.09 448.742 1586.15 450.273 1583.09 453.336C1580.01 456.414 1578.06 460.284 1577.25 464.945Z" fill="white"/>
</g>
</g>
</g>
</g>
<g clip-path="url(#clip9_9_87)">
<g clip-path="url(#clip10_9_87)">
<path d="M177.66 50.8411L4.11523 151.031V228.753L177.66 128.556L351.199 228.753V151.031L177.66 50.8411Z" fill="white"/>
<path d="M348.192 551.509L174.646 451.319V373.61L348.192 473.8L521.73 373.61V451.319L348.192 551.509Z" fill="white"/>
<path d="M4.11523 249.624L177.66 149.428L244.956 188.286L71.4172 288.482V488.875L4.11523 450.017V249.624Z" fill="white"/>
<path d="M436.583 101.247L263.038 1.05713L195.736 39.9148L369.275 140.105V340.498L436.583 301.64V101.247Z" fill="white"/>
<path d="M89.8584 500.436L89.8648 300.05L157.167 261.192V461.585L330.705 561.775L263.403 600.639L89.8584 500.436Z" fill="white"/>
<path d="M521.73 352.732V152.339L454.428 113.481V313.868L280.89 414.071L348.192 452.935L521.73 352.732Z" fill="white"/>
</g>
</g>
</g>
</g>
</g>
<defs>
<clipPath id="clip0_9_87">
<rect width="2290.08" height="600" fill="white" transform="translate(0 0.8479)"/>
</clipPath>
<clipPath id="clip1_9_87">
<rect width="2281.85" height="599.582" fill="white" transform="translate(4.11523 1.05713)"/>
</clipPath>
<clipPath id="clip2_9_87">
<rect width="2281.85" height="599.582" fill="white" transform="translate(4.11523 1.05713)"/>
</clipPath>
<clipPath id="clip3_9_87">
<rect width="1613.61" height="433.851" fill="white" transform="translate(672.35 83.9226)"/>
</clipPath>
<clipPath id="clip4_9_87">
<rect width="1613.61" height="433.851" fill="white" transform="translate(672.35 83.9226)"/>
</clipPath>
<clipPath id="clip5_9_87">
<rect width="1613.61" height="267.848" fill="white" transform="translate(672.35 83.9226)"/>
</clipPath>
<clipPath id="clip6_9_87">
<rect width="1613.61" height="267.848" fill="white" transform="translate(672.35 83.9226)"/>
</clipPath>
<clipPath id="clip7_9_87">
<rect width="947.351" height="102.77" fill="white" transform="translate(672.35 415.003)"/>
</clipPath>
<clipPath id="clip8_9_87">
<rect width="947.351" height="102.77" fill="white" transform="translate(672.35 415.003)"/>
</clipPath>
<clipPath id="clip9_9_87">
<rect width="517.615" height="599.582" fill="white" transform="translate(4.11523 1.05713)"/>
</clipPath>
<clipPath id="clip10_9_87">
<rect width="517.615" height="599.582" fill="white" transform="translate(4.11523 1.05713)"/>
</clipPath>
</defs>
</svg>
